<?xml version="1.0" encoding="utf-8"?>
<!-- Generator: Adobe Illustrator 23.0.5, SVG Export Plug-In . SVG Version: 6.00 Build 0)  -->
<svg version="1.1" id="Layer_1" xmlns="http://www.w3.org/2000/svg" xmlns:xlink="http://www.w3.org/1999/xlink" x="0px" y="0px"
	 viewBox="-286.2211 365.599 400 230" style="enable-background:new -286.2211 365.599 400 230;" xml:space="preserve">
<style type="text/css">
	.st0{fill:url(#SVGID_1_);}
</style>
<linearGradient id="SVGID_1_" gradientUnits="userSpaceOnUse" x1="-273.1999" y1="480.599" x2="100.7577" y2="480.599">
	<stop  offset="0" style="stop-color:#72D4FF"/>
	<stop  offset="1" style="stop-color:#2397E3"/>
</linearGradient>
<path class="st0" d="M-273.1999,560.4778c0,16.5112,4.0162,21.8662,22.3125,21.8662c0,0,157.08,0,182.9625,0
	s58.31-14.5775,58.31-49.385s-27.0725-49.6825-38.675-57.715s-35.7-18.445-35.7-41.055c0-22.61,28.8575-27.6675,42.84-27.6675
	s64.26,0,64.26,0c19.04,0,49.6825,5.0575,49.6825,26.4775c0,21.42,0,30.0475,0,30.0475c-17.85,0-102.6375,0-102.6375,0
	s-1.3759,0.1487-0.2045,0.6508c1.1714,0.502,24.8227,14.6704,30.6239,26.0498c11.3794,0,72.2181,0,72.2181,0v75.4163
	c0,10.71,6.3219,17.1806,14.8006,17.1806s13.1644-6.4706,13.1644-17.4037s0-108.4388,0-131.6437
	c0-23.205-20.5275-54.4425-75.8625-54.4425s-65.1525,0-65.1525,0c-37.485,0-71.4,21.42-71.4,56.2275s32.13,52.2113,45.5175,61.1363
	c13.3875,8.925,29.4525,18.7425,29.4525,37.0388c0,18.2962-22.7588,21.8662-31.6838,21.8662s-177.6075,0-177.6075,0
	c0-15.6187,0-131.1975,0-131.1975c0-13.3875,2.8262-15.6187,8.1812-17.1062c5.355-1.4875,12.1975,2.0825,18.1475,11.305
	s34.2125,51.765,38.9725,59.5c4.76,7.735,8.33,12.495,14.5775,12.495s9.8175-3.2725,15.47-9.52s17.85-19.3375,17.85-19.3375
	c-3.2725-8.925-3.2725-14.5775-3.2725-20.5275c0-5.95,0.7437-13.8338,1.19-16.065c0.4462-2.2313-0.595-2.5287-1.785-0.8925
	c-1.19,1.6363-26.6263,30.6425-26.6263,30.6425c-4.165-6.2475-29.8244-45.6663-35.6256-54.5912
	c-5.8013-8.925-24.99-27.2213-47.0794-18.7425c-22.0894,8.4788-27.2213,24.99-27.2213,41.9475s0,133.2057,0,133.2057V560.4778z"/>
</svg>
